<svg xmlns="http://www.w3.org/2000/svg" xmlns:xlink="http://www.w3.org/1999/xlink" width="18px" height="18px">
	<path fill-rule="evenodd" fill="rgb(0, 0, 0)" d="M17.137,13.521 C17.173,13.798 17.088,14.039 16.884,14.244 L14.484,16.629 C14.375,16.749 14.234,16.852 14.060,16.936 C13.885,17.021 13.714,17.075 13.546,17.099 C13.533,17.099 13.497,17.102 13.437,17.108 C13.377,17.114 13.299,17.117 13.203,17.117 C12.974,17.117 12.604,17.078 12.093,17.000 C11.581,16.921 10.956,16.729 10.216,16.421 C9.476,16.114 8.637,15.653 7.698,15.039 C6.760,14.425 5.762,13.581 4.703,12.509 C3.861,11.678 3.163,10.882 2.609,10.124 C2.056,9.364 1.611,8.663 1.274,8.018 C0.937,7.374 0.684,6.790 0.516,6.265 C0.348,5.741 0.233,5.289 0.173,4.910 C0.113,4.531 0.089,4.232 0.101,4.015 C0.113,3.798 0.119,3.678 0.119,3.654 C0.143,3.485 0.197,3.314 0.281,3.139 C0.366,2.964 0.468,2.823 0.588,2.714 L2.988,0.311 C3.157,0.142 3.349,0.058 3.566,0.058 C3.722,0.058 3.861,0.103 3.981,0.193 C4.101,0.284 4.203,0.395 4.288,0.527 L6.219,4.196 C6.327,4.389 6.357,4.600 6.309,4.829 C6.261,5.057 6.158,5.251 6.002,5.407 L5.118,6.292 C5.094,6.317 5.073,6.356 5.055,6.410 C5.037,6.464 5.028,6.509 5.028,6.545 C5.076,6.798 5.184,7.088 5.352,7.413 C5.497,7.702 5.719,8.054 6.020,8.470 C6.321,8.886 6.748,9.364 7.301,9.907 C7.843,10.461 8.324,10.891 8.745,11.199 C9.166,11.506 9.518,11.732 9.801,11.876 C10.084,12.021 10.300,12.108 10.450,12.138 L10.676,12.183 C10.700,12.183 10.739,12.175 10.793,12.157 C10.847,12.138 10.886,12.117 10.911,12.093 L11.939,11.045 C12.156,10.852 12.408,10.756 12.697,10.756 C12.902,10.756 13.064,10.792 13.184,10.865 L13.202,10.865 L16.685,12.924 C16.938,13.081 17.088,13.280 17.137,13.521 Z" />
</svg>