<?xml version="1.0" encoding="utf-8"?>
<!-- Generator: Adobe Illustrator 22.1.0, SVG Export Plug-In . SVG Version: 6.00 Build 0)  -->
<svg version="1.1" id="Layer_1" xmlns="http://www.w3.org/2000/svg" xmlns:xlink="http://www.w3.org/1999/xlink" x="0px" y="0px"
	 viewBox="0 0 465.8 330.8" style="enable-background:new 0 0 465.8 330.8;" xml:space="preserve">
<style type="text/css">
	.st0{fill:#7A48CF;}
</style>
<path class="st0" d="M455.5,10.3C448.9,3.7,440.1,0,430.7,0c-9.4,0-18.2,3.7-24.8,10.3L171.1,246L59.9,134.9
	c-13.7-13.7-36-13.7-49.6,0C3.7,141.5,0,150.3,0,159.7c0,9.4,3.7,18.2,10.3,24.8l136,136c6.6,6.6,15.4,10.3,24.8,10.3
	c9.4,0,18.2-3.7,24.8-10.3L455.5,59.9c6.6-6.6,10.3-15.4,10.3-24.8C465.8,25.7,462.1,16.9,455.5,10.3z"/>
</svg>
